<svg id="Layer_1" data-name="Layer 1" xmlns="http://www.w3.org/2000/svg" viewBox="0 0 606 768"><defs><style>.cls-1{fill:#2430ff;}</style></defs><title>ampersand</title><path class="cls-1" d="M501.37,579.45l69.42,83.3-87.93,67.57L434.73,672Q369,730.32,276.46,730.32q-51.84,0-96.72-17.13t-78.21-48.13a223.5,223.5,0,0,1-52.29-73.58q-19-42.56-19-93.48,0-55.53,27.31-105.51t76.36-85.15a254.5,254.5,0,0,1-28.7-50,137.23,137.23,0,0,1-11.1-54.61,166.08,166.08,0,0,1,12.49-64.33,153.12,153.12,0,0,1,35.64-52.29A172.83,172.83,0,0,1,196.87,51q31.45-13,69.41-13,66.64,0,106.9,31A173.4,173.4,0,0,1,431,147.22l-98.11,51.83a99.62,99.62,0,0,0-23.14-38.41q-15.75-16.19-41.65-16.2-26.85,0-42.57,15.73T209.82,200a58.35,58.35,0,0,0,6.48,27.3,161.38,161.38,0,0,0,17.59,26.38l199,242.5,54.61-88.85,87.93,55.53ZM282,621.1q51.83,0,85.15-30.54L199.64,387.86a131.54,131.54,0,0,0-39.8,47.67Q146,463.78,146,493.37t11.11,53.22a121.73,121.73,0,0,0,30.08,40.26,133.3,133.3,0,0,0,43.5,25.46A150.76,150.76,0,0,0,282,621.1Z"/></svg>