<svg width="1080" height="1080" viewBox="0 0 1080 1080" fill="none" xmlns="http://www.w3.org/2000/svg">
<g clip-path="url(#clip0)">
<rect width="1080" height="1080" fill="url(#paint0_linear)"/>
<path fill-rule="evenodd" clip-rule="evenodd" d="M1250 251H745C727.327 251 713 265.327 713 283V872C713 889.673 727.327 904 745 904H1250C1267.67 904 1282 889.673 1282 872V283C1282 265.327 1267.67 251 1250 251ZM745 223C711.863 223 685 249.863 685 283V872C685 905.137 711.863 932 745 932H1250C1283.14 932 1310 905.137 1310 872V283C1310 249.863 1283.14 223 1250 223H745Z" fill="white"/>
<g filter="url(#filter0_d)">
<path fill-rule="evenodd" clip-rule="evenodd" d="M353 883C350 891 347 896 344 906C342 913 340 923 336 929C333 935 326 942 324 948C323 952 323 958 322 962C322 967 320 971 320 975C319 984 318 995 318 1004C316 1028 321 1020 323 1028C324 1033 321 1036 319 1040C317 1044 316 1047 316 1052C316 1062 317 1071 315 1080H766C765 1072 767 1064 766 1057C766 1052 763 1043 761 1039C754 1015 764 1011 759 999C757 992 753 990 754 980C754 972 759 969 757 960C755 947 742 940 738 933C738 931 743 918 744 913C749 893 745 859 749 842C724 840 706 850 690 853C668 858 650 858 627 855L630 867C607 869 585 876 562 880C550 883 539 884 526 885C514 887 505 891 494 893C470 899 446 898 421 895C399 892 373 884 353 883ZM466 427C458 429 450 436 443 439C435 443 427 446 419 450C405 457 386 466 370 471C352 476 336 486 324 495C317 501 312 506 306 512C299 520 300 524 295 535C289 552 280 571 279 589C277 610 273 628 269 648C268 658 265 668 263 677C260 698 264 708 258 742C252 771 251 776 269 776L267 754C281 745 303 740 324 742C341 743 368 748 380 755L384 756L380 769L379 775C394 777 405 781 419 784C417 769 414 758 421 744C428 732 435 730 454 731C449 736 441 739 440 756C440 771 445 777 448 788L420 784C435 788 449 794 465 796C458 788 452 782 450 768C448 753 448 741 460 736C470 730 561 740 581 739C617 738 626 735 658 728C673 726 684 726 699 725L697 723L696 722C679 714 685 712 687 704C684 701 682 701 680 697C678 690 680 691 673 689C674 686 698 644 707 651C707 651 707 651 707 652C707 652 707 652 708 652C708 654 708 653 708 655L705 668C713 664 722 653 733 655C737 662 733 667 730 672H737C739 682 736 687 731 692C727 696 716 702 712 705C716 706 721 706 723 711C726 703 743 694 754 692C785 687 820 714 813 733C810 743 801 761 800 771C809 769 817 762 822 757C837 737 825 714 822 699C821 693 824 674 824 666C824 653 821 647 819 635C811 599 818 574 806 541C799 519 798 514 785 499C779 493 765 487 758 481C751 476 744 472 737 467C726 459 654 432 636 426C638 432 639 435 635 440C632 444 630 446 627 450C607 472 583 484 550 483C519 483 490 473 471 452C464 444 460 439 466 427Z" fill="#1A1A1A"/>
<path fill-rule="evenodd" clip-rule="evenodd" d="M732 660C732 660 775 613 805 611C805 611 781 624 775 631L796 625L775 631L732 660ZM401 890C401 890 419 928 446 948C446 948 419 911 420 895C420 895 447 911 453 916C453 916 434 904 437 893C440 882 476 912 506 915C506 915 491 909 476 895C461 881 427 884 427 884L401 890ZM474 708C474 708 485 721 491 739L495 741C495 741 496 720 504 705C504 705 493 721 492 727C492 727 485 720 481 715C477 710 474 708 474 708ZM288 606C288 606 313 650 358 657C358 657 362 656 369 671C369 671 355 660 342 656C329 652 296 638 288 606ZM318 660C318 660 285 635 283 628C283 628 291 646 299 651C307 656 318 660 318 660ZM320 537C320 537 368 575 379 623C379 623 358 521 353 512C353 512 383 595 384 608C384 608 385 508 404 489C404 489 394 565 393 599C392 633 392 698 387 742C387 742 381 669 370 632C359 595 349 577 320 537ZM467 534C467 534 536 572 554 602C572 632 579 650 575 664C571 678 565 683 565 683C565 683 577 656 557 623C537 590 520 573 467 534ZM695 656C695 656 704 585 694 551C694 551 705 577 705 564C705 551 701 492 716 481C716 481 709 511 711 552C711 552 726 510 743 499C760 488 760 495 760 495C760 495 751 497 744 505C737 513 726 528 725 533C725 533 750 507 769 508C769 508 736 526 723 548C723 548 755 518 779 517C779 517 725 549 720 558C720 558 737 549 752 549C752 549 731 556 719 589C707 622 699 652 699 652L695 656ZM796 558C796 558 761 570 758 576C755 582 775 572 775 572C775 572 788 567 790 563C792 559 796 558 796 558ZM787 578C787 578 736 600 724 623C724 623 758 597 770 591C782 585 787 578 787 578Z" fill="#0D0D0D"/>
<path fill-rule="evenodd" clip-rule="evenodd" d="M641 732C643 729 649 724 652 722C656 719 673 688 673 688C673 689 673 689 673 689C680 691 678 690 680 697C682 701 684 701 687 704C693 709 696 707 695 722C695 723 696 724 698 725C684 726 673 726 658 728C652 730 646 731 641 732Z" fill="#333333"/>
<path d="M466.375 427C463.375 433 462.375 437 463.375 441C464.375 445 467.375 448 471.375 452C480.375 463 492.375 470 505.375 475C519.375 481 534.375 484 550.375 484C567.375 484 581.375 481 594.375 475C606.375 470 617.375 461 627.375 450L628.875 448C631.375 445.5 633.375 443 635.375 440C638.914 435.576 638.539 433.501 637.713 428.927C637.606 428.33 637.49 427.692 637.375 427L636.375 426L634.875 425.5C631.875 425 628.375 422 625.375 418C623.375 414 622.375 409 621.375 403C620.375 398 619.375 393 619.375 387V367L613.375 373C612.56 373.611 611.662 374.306 610.689 375.058C606.888 377.996 601.949 381.815 596.375 385C591.375 389 586.375 392 581.375 394C579.875 394.5 578.125 395 576.375 395.5C574.625 396 572.875 396.5 571.375 397C569.375 397.5 567.625 397.75 565.875 398C564.125 398.25 562.375 398.5 560.375 399H547.375C543.375 399 539.375 399 535.375 400C534.375 399 533.375 399 530.375 399C523.375 398 506.375 395 486.375 376C485.476 375.101 484.375 374.202 483.163 373.212C481.678 372 480.027 370.652 478.375 369C476.375 368 474.375 366 473.375 365H472.375V366C473.375 375 474.375 387 474.375 387L475.375 400V418C474.558 423.716 473.408 424.098 471.925 424.59C471.592 424.7 471.242 424.817 470.875 425C470.632 425.081 470.375 425.162 470.112 425.246C468.752 425.675 467.213 426.162 466.375 427Z" fill="#DE9F73"/>
<mask id="mask0" mask-type="alpha" maskUnits="userSpaceOnUse" x="462" y="365" width="176" height="119">
<path d="M466 427C463 433 462 437 463 441C464 445 467 448 471 452C480 463 492 470 505 475C519 481 534 484 550 484C567 484 581 481 594 475C606 470 617 461 627 450L628.5 448C631 445.5 633 443 635 440C638.539 435.576 638.164 433.501 637.338 428.927C637.231 428.33 637.115 427.692 637 427L636 426L634.5 425.5C631.5 425 628 422 625 418C623 414 622 409 621 403C620 398 619 393 619 387V367L613 373C612.185 373.611 611.287 374.306 610.314 375.058C606.513 377.996 601.574 381.815 596 385C591 389 586 392 581 394C579.5 394.5 577.75 395 576 395.5C574.25 396 572.5 396.5 571 397C569 397.5 567.25 397.75 565.5 398C563.75 398.25 562 398.5 560 399H547C543 399 539 399 535 400C534 399 533 399 530 399C523 398 506 395 486 376C485.101 375.101 484 374.202 482.788 373.212C481.303 372 479.652 370.652 478 369C476 368 474 366 473 365H472V366C473 375 474 387 474 387L475 400V418C474.183 423.716 473.033 424.098 471.55 424.59C471.217 424.7 470.867 424.817 470.5 425C470.257 425.081 470 425.162 469.737 425.246C468.377 425.675 466.838 426.162 466 427Z" fill="#D49161"/>
</mask>
<g mask="url(#mask0)">
<path d="M501 494C560.6 471.6 604.5 413 614 369C592.167 359.667 525.4 347.5 477 345.5C428.6 343.5 419.5 386.333 421 408C428.167 447.333 441.4 516.4 501 494Z" fill="url(#paint1_linear)"/>
</g>
<path fill-rule="evenodd" clip-rule="evenodd" d="M380 769L384 756L380 755C380 760 379 764 380 769Z" fill="#1F233B"/>
<path fill-rule="evenodd" clip-rule="evenodd" d="M420 784H419C405 781 394 777 379 775L380 769C379 764 380 760 380 755C368 748 341 743 324 742C303 740 281 745 267 754L269 776C272 788 272 807 274 820C277 841 279 862 291 876C306 894 328 879 353 883C373 884 399 892 421 895C446 898 470 899 494 893C505 891 514 887 526 885C539 884 550 883 562 880C585 876 607 869 630 867L627 855C650 858 668 858 690 853C706 850 724 840 749 842C753 841 758 842 762 839C767 836 778 819 782 814C792 799 795 777 800 771C801 761 810 743 813 733C820 714 785 687 754 692C747 694 738 698 731 703C732 698 730 696 725 698C727 696 729 694 731 692C736 687 739 682 737 672C734.47 670.713 732.932 670.742 730 672C733 667 737 662 733 655C722 653 713 664 705 668L708 655C708 653 708 654 708 652C708 651 707 651 707 651C698 644 674 686 673 689C680 691 678 690 680 697C682 701 684 701 687 704C688 710 689 712 693 714C695 715 694 719 696 722L697 723L699 725C684 726 673 726 658 728C626 735 617 738 581 739C561 740 470 730 460 736C448 741 448 753 450 768C452 782 458 788 465 796C449 794 435 788 420 784Z" fill="#EFB38A"/>
<path fill-rule="evenodd" clip-rule="evenodd" d="M713 817C722 820 729 825 731 830H732L731 831C726 832 721 834 716 835C710 837 704 839 698 841H697C682 846 678 848 660 847C646 846 634 845 622 843C611 840 600 837 588 832C566 824 547 817 527 811C515 807 504 803 491 798C489 798 487 797 485 796C475 793 468 791 465 780V779H466C487 782 507 786 527 790C552 795 576 800 601 802C615 804 628 805 641 805C652 806 664 806 675 807C684 808 700 811 713 817ZM374 878C366 876 359 874 358 872L357 871H358C368 870 377 869 385 867C394 866 402 865 412 863C424 860 442 859 457 858C461 858 465 858 468 858L472 857C500 855 565 851 586 857V858V864V865H585C575 868 559 871 544 873C539 874 533 874 529 875C526 876 522 876 519 877C513 878 507 879 501 880C485 884 470 886 456 887C441 888 427 888 410 885C404 885 387 882 374 878Z" fill="#DE9F73"/>
<path fill-rule="evenodd" clip-rule="evenodd" d="M629 861C630 865 633 871 637 874L660 857C650 857 639 856 628 855H627L629 861Z" fill="#333333"/>
<path fill-rule="evenodd" clip-rule="evenodd" d="M463 796C459 792 449 781 448 767C447 750 446 741 460 734C460 734 455 730 449 730C443 730 420 729 413 730C406 731 402 731 399 733C396 735 385 748 384 753C383 756 381 761 380 766C380 767 380 768 380 769L379 775C394 777 405 781 419 784H420C434 788 448 793 463 796Z" fill="#333333"/>
<path fill-rule="evenodd" clip-rule="evenodd" d="M419 784H420L448 788C445 777 440 771 440 756C441 739 449 736 454 731C435 730 428 732 421 744C414 758 417 769 419 784Z" fill="#CACACA"/>
<path fill-rule="evenodd" clip-rule="evenodd" d="M814 724C814 724 825 739 817 749C809 759 801 766 801 766C804 756 811 742 813 733C814 730 814 727 814 724Z" fill="#1F233B"/>
<path fill-rule="evenodd" clip-rule="evenodd" d="M267 754C267 754 251 771 268 771L267 754Z" fill="#1F233B"/>
<path fill-rule="evenodd" clip-rule="evenodd" d="M705 657C704 667 691 681 687 687L705 668L708 655C708 653 708 653 708 653C708 653 708 653 708 652C707 652 707 652 707 652C707 651 707 651 707 651C707 651 707 655 705 657Z" fill="#DE9F73"/>
<path fill-rule="evenodd" clip-rule="evenodd" d="M733 655C732 665 726 670 709 683L693 699L730 672C733 667 737 662 733 655Z" fill="#DE9F73"/>
<path fill-rule="evenodd" clip-rule="evenodd" d="M737 672C734 692 711 705 702 718L735 687C738 682 739 679 737 672Z" fill="#DE9F73"/>
<path fill-rule="evenodd" clip-rule="evenodd" d="M699 724C699 724 738 717 756 723C756 723 723 722 707 725C692 727 699 724 699 724Z" fill="#DE9F73"/>
<path fill-rule="evenodd" clip-rule="evenodd" d="M731 703C731 703 715 721 713 723C713 723 713 723 715 722C718 722 732 704 731 703Z" fill="#DE9F73"/>
<path d="M438 272.5C445.6 272.5 454.667 280.5 459 285.5C450.5 265.5 460.5 215 477.5 186.5C494.5 158 553 161 594.5 173.5C636 186 634.5 221 638.5 233C641.7 242.6 639.833 276 638.5 291.5C640 290 643 286 653 283.5C663 281 663 291 662.5 307.5C662 324 643.5 345 638.5 348.5C634.5 351.3 631.833 349.667 631 348.5C629.833 352.167 625.8 361.4 619 369C610.5 378.5 585.5 393.5 575.5 398C565.5 402.5 537.5 403 518 398C498.5 393 474 369 471.5 365.5C469 362 463.632 347.897 463 346C462.5 344.5 462.5 343 460.5 343C460 345.167 456.1 346 444.5 332C430 314.5 428 291 428 284C428 277 428.5 272.5 438 272.5Z" fill="#EFB38A"/>
<path fill-rule="evenodd" clip-rule="evenodd" d="M451 278C452 282 457 285 460 287C463 264 459 262 467 247C473 235 471 221 475 208C479 195 490 193 505 191C530 189 613 184 622 214C624 223 623 227 624 235C624 239 630 246 632 251C637 262 637 280 637 293C639 292 641 293 643 287C643 247 645 213 626 183C607 150 589 143 549 137C541 136 530 135 522 135C515 134 507 143 503 147C490 157 481 163 473 178C454 207 450 237 451 278Z" fill="black"/>
</g>
<path d="M-4.20162 667.5C-32.5336 676.834 -59.167 692.767 -81.6999 715.3C-104.233 737.833 -120.166 764.466 -129.5 792.798L-4.20162 667.5Z" fill="white"/>
<path d="M-138.344 834.17L37.1696 658.656C48.6318 657.468 60.1782 657.282 71.6668 658.1L-138.9 868.667C-139.718 857.178 -139.532 845.632 -138.344 834.17Z" fill="white"/>
<path d="M-134.79 897.083C-132.839 905.958 -130.268 914.725 -127.079 923.314L126.314 669.921C117.725 666.732 108.958 664.161 100.083 662.21L-134.79 897.083Z" fill="white"/>
<path d="M148.826 679.936L-117.064 945.826C-113.277 953.072 -109.008 960.133 -104.257 966.959L169.96 692.743C163.133 687.992 156.072 683.723 148.826 679.936Z" fill="white"/>
<path d="M188.161 707.069L-89.931 985.161C-87.2928 988.136 -84.5491 991.051 -81.6999 993.9C-78.8508 996.749 -75.936 999.493 -72.9605 1002.13L205.131 724.04C202.493 721.064 199.749 718.149 196.9 715.3C194.051 712.451 191.136 709.707 188.161 707.069Z" fill="white"/>
<path d="M219.457 742.241L-54.7593 1016.46C-47.9326 1021.21 -40.8722 1025.48 -33.6256 1029.26L232.264 763.374C228.477 756.128 224.208 749.067 219.457 742.241Z" fill="white"/>
<path d="M242.279 785.887L-11.1133 1039.28C-2.52474 1042.47 6.24176 1045.04 15.1169 1046.99L249.99 812.117C248.039 803.242 245.469 794.475 242.279 785.887Z" fill="white"/>
<path d="M254.1 840.533L43.5334 1051.1C55.0219 1051.92 66.5684 1051.73 78.0306 1050.54L253.544 875.031C254.732 863.568 254.918 852.022 254.1 840.533Z" fill="white"/>
<path d="M244.7 916.402L119.402 1041.7C147.734 1032.37 174.367 1016.43 196.9 993.9C219.433 971.367 235.366 944.734 244.7 916.402Z" fill="white"/>
<path fill-rule="evenodd" clip-rule="evenodd" d="M62 82C73.0457 82 82 73.0457 82 62C82 50.9543 73.0457 42 62 42C50.9543 42 42 50.9543 42 62C42 73.0457 50.9543 82 62 82ZM222 82C233.046 82 242 73.0457 242 62C242 50.9543 233.046 42 222 42C210.954 42 202 50.9543 202 62C202 73.0457 210.954 82 222 82ZM162 62C162 73.0457 153.046 82 142 82C130.954 82 122 73.0457 122 62C122 50.9543 130.954 42 142 42C153.046 42 162 50.9543 162 62ZM302 82C313.046 82 322 73.0457 322 62C322 50.9543 313.046 42 302 42C290.954 42 282 50.9543 282 62C282 73.0457 290.954 82 302 82ZM82 142C82 153.046 73.0457 162 62 162C50.9543 162 42 153.046 42 142C42 130.954 50.9543 122 62 122C73.0457 122 82 130.954 82 142ZM222 162C233.046 162 242 153.046 242 142C242 130.954 233.046 122 222 122C210.954 122 202 130.954 202 142C202 153.046 210.954 162 222 162ZM162 142C162 153.046 153.046 162 142 162C130.954 162 122 153.046 122 142C122 130.954 130.954 122 142 122C153.046 122 162 130.954 162 142ZM302 162C313.046 162 322 153.046 322 142C322 130.954 313.046 122 302 122C290.954 122 282 130.954 282 142C282 153.046 290.954 162 302 162ZM82 222C82 233.046 73.0457 242 62 242C50.9543 242 42 233.046 42 222C42 210.954 50.9543 202 62 202C73.0457 202 82 210.954 82 222ZM222 242C233.046 242 242 233.046 242 222C242 210.954 233.046 202 222 202C210.954 202 202 210.954 202 222C202 233.046 210.954 242 222 242ZM162 222C162 233.046 153.046 242 142 242C130.954 242 122 233.046 122 222C122 210.954 130.954 202 142 202C153.046 202 162 210.954 162 222ZM302 242C313.046 242 322 233.046 322 222C322 210.954 313.046 202 302 202C290.954 202 282 210.954 282 222C282 233.046 290.954 242 302 242Z" fill="white"/>
</g>
<defs>
<filter id="filter0_d" x="222.092" y="102.923" width="639.293" height="1009.08" filterUnits="userSpaceOnUse" color-interpolation-filters="sRGB">
<feFlood flood-opacity="0" result="BackgroundImageFix"/>
<feColorMatrix in="SourceAlpha" type="matrix" values="0 0 0 0 0 0 0 0 0 0 0 0 0 0 0 0 0 0 127 0"/>
<feOffset/>
<feGaussianBlur stdDeviation="16"/>
<feColorMatrix type="matrix" values="0 0 0 0 0 0 0 0 0 0 0 0 0 0 0 0 0 0 0.3 0"/>
<feBlend mode="normal" in2="BackgroundImageFix" result="effect1_dropShadow"/>
<feBlend mode="normal" in="SourceGraphic" in2="effect1_dropShadow" result="shape"/>
</filter>
<linearGradient id="paint0_linear" x1="-6.29202e-06" y1="1080" x2="1080" y2="-6.29202e-06" gradientUnits="userSpaceOnUse">
<stop stop-color="#9900FF"/>
<stop offset="0.494792" stop-color="#2312FF"/>
<stop offset="1" stop-color="#01C2FF"/>
</linearGradient>
<linearGradient id="paint1_linear" x1="603" y1="367" x2="537.5" y2="479" gradientUnits="userSpaceOnUse">
<stop stop-color="#D49161"/>
<stop offset="1" stop-color="#D49161" stop-opacity="0"/>
</linearGradient>
<clipPath id="clip0">
<rect width="1080" height="1080" fill="white"/>
</clipPath>
</defs>
</svg>
