<svg xmlns="http://www.w3.org/2000/svg" viewBox="0 0 447.57 447.57"><defs><style>.cls-1{fill:#af15ff;}.cls-2{fill:#fff;}</style></defs><title>custom</title><g id="Layer_2" data-name="Layer 2"><g id="Customization"><circle class="cls-1" cx="223.78" cy="223.78" r="223.78"/><path class="cls-2" d="M223.78,90.34c-73.53,0-133.44,59.91-133.44,133.44s59.91,133.44,133.44,133.44a33.38,33.38,0,0,0,33.36-33.36,34,34,0,0,0-8.54-22.29,7,7,0,0,1-1.74-4.4,6.61,6.61,0,0,1,6.68-6.67h23.61a80.13,80.13,0,0,0,80.07-80.06C357.22,144.25,297.3,90.34,223.78,90.34Zm53.37,173.47H253.54a33.28,33.28,0,0,0-25,55.38,7.2,7.2,0,0,1,1.87,4.67,6.61,6.61,0,0,1-6.67,6.67,106.75,106.75,0,0,1,0-213.5c58.85,0,106.75,41.9,106.75,93.41A53.36,53.36,0,0,1,277.15,263.81Z"/><circle class="cls-2" cx="150.39" cy="217.11" r="20.02" transform="translate(-81.22 90.18) rotate(-26.56)"/><circle class="cls-2" cx="190.42" cy="163.73" r="20.02" transform="translate(-23.77 32.62) rotate(-9.22)"/><circle class="cls-2" cx="257.14" cy="163.73" r="20.02"/><circle class="cls-2" cx="297.17" cy="217.11" r="20.02" transform="translate(51.84 491.44) rotate(-84.34)"/></g></g></svg>