<svg id="Layer_1" data-name="Layer 1" xmlns="http://www.w3.org/2000/svg" xmlns:xlink="http://www.w3.org/1999/xlink" viewBox="0 0 446.47 67.42"><defs><style>.cls-1{fill:url(#linear-gradient);}</style><linearGradient id="linear-gradient" x1="440.81" y1="53.64" x2="456.12" y2="53.64" gradientUnits="userSpaceOnUse"><stop offset="0" stop-color="#0050e9"/><stop offset="1" stop-color="#982eff"/></linearGradient></defs><title>logo</title><path d="M9.65,39.4a23.62,23.62,0,0,1,1.54-8.6,21.24,21.24,0,0,1,4.32-6.95,19.75,19.75,0,0,1,6.65-4.65,20.88,20.88,0,0,1,8.48-1.69,18.51,18.51,0,0,1,6.35,1,17.23,17.23,0,0,1,5.54,3.37V18.33H53V60.48H42.53V56.9A17.23,17.23,0,0,1,37,60.27a18.51,18.51,0,0,1-6.35,1,20.88,20.88,0,0,1-8.48-1.69A19.75,19.75,0,0,1,15.51,55a21.24,21.24,0,0,1-4.32-7A23.67,23.67,0,0,1,9.65,39.4ZM32,51.46a14.14,14.14,0,0,0,2.6-.26,12,12,0,0,0,2.73-.91A12.43,12.43,0,0,0,40,48.58,15.45,15.45,0,0,0,42.53,46V32.86A14.93,14.93,0,0,0,40,30.25a14.16,14.16,0,0,0-2.7-1.71,11.61,11.61,0,0,0-2.73-.93,13.32,13.32,0,0,0-2.6-.26,11.46,11.46,0,0,0-4.54.9,11,11,0,0,0-3.69,2.53,11.91,11.91,0,0,0-2.45,3.83,13.5,13.5,0,0,0,0,9.59A11.91,11.91,0,0,0,23.76,48a11.19,11.19,0,0,0,3.69,2.53A11.46,11.46,0,0,0,32,51.46Z" transform="translate(-9.65 -5.7)"/><path d="M61.54,18.33H72v3.91a13.66,13.66,0,0,1,4.71-3.5,14.72,14.72,0,0,1,6.11-1.23A13.41,13.41,0,0,1,90,19.36a15.35,15.35,0,0,1,5,4.86,14.53,14.53,0,0,1,12.6-6.71A16.24,16.24,0,0,1,114.66,19a15.31,15.31,0,0,1,5.14,4,16.62,16.62,0,0,1,3.11,5.66,21.59,21.59,0,0,1,1,6.61V60.48H113.48V35.86a10,10,0,0,0-.57-3.45,8.18,8.18,0,0,0-1.61-2.7A7,7,0,0,0,108.85,28a8.18,8.18,0,0,0-6.15,0,7.23,7.23,0,0,0-2.43,1.69,8.47,8.47,0,0,0-1.64,2.59A9,9,0,0,0,98,35.49v25H87.51V35.86a10,10,0,0,0-.57-3.45,8.18,8.18,0,0,0-1.61-2.7A7,7,0,0,0,82.88,28a7.69,7.69,0,0,0-3.1-.61,7.58,7.58,0,0,0-3.11.63,7.66,7.66,0,0,0-2.47,1.77,8.16,8.16,0,0,0-1.63,2.7A9.88,9.88,0,0,0,72,35.86V60.48H61.54Z" transform="translate(-9.65 -5.7)"/><path d="M175.34,39.4A23.67,23.67,0,0,1,173.8,48a21.24,21.24,0,0,1-4.32,7,19.75,19.75,0,0,1-6.65,4.65,20.88,20.88,0,0,1-8.48,1.69,18.77,18.77,0,0,1-6.38-1,16.7,16.7,0,0,1-5.51-3.37V73.11H132V18.33h10.45v3.58A16.7,16.7,0,0,1,148,18.54a18.77,18.77,0,0,1,6.38-1,20.88,20.88,0,0,1,8.48,1.69,19.75,19.75,0,0,1,6.65,4.65,21.24,21.24,0,0,1,4.32,7A23.62,23.62,0,0,1,175.34,39.4ZM153,27.35a13.32,13.32,0,0,0-2.6.26,11.45,11.45,0,0,0-2.73.93A14.61,14.61,0,0,0,145,30.25a13.54,13.54,0,0,0-2.49,2.61V46A14,14,0,0,0,145,48.58a12.78,12.78,0,0,0,2.72,1.71,11.83,11.83,0,0,0,2.73.91,14.14,14.14,0,0,0,2.6.26,11.5,11.5,0,0,0,4.54-.9A11.29,11.29,0,0,0,161.23,48a11.91,11.91,0,0,0,2.45-3.83,13.5,13.5,0,0,0,0-9.59,11.91,11.91,0,0,0-2.45-3.83,11.14,11.14,0,0,0-3.69-2.53A11.5,11.5,0,0,0,153,27.35Z" transform="translate(-9.65 -5.7)"/><path d="M201.23,61.3a21.42,21.42,0,0,1-8.44-1.69A22.14,22.14,0,0,1,181,48a21.41,21.41,0,0,1-1.77-8.72A20.85,20.85,0,0,1,181,30.66a21.93,21.93,0,0,1,4.78-6.9,22.22,22.22,0,0,1,7-4.58,21.71,21.71,0,0,1,8.46-1.67,22.39,22.39,0,0,1,8.69,1.67,21.78,21.78,0,0,1,7,4.61,21.28,21.28,0,0,1,4.72,6.91,21.52,21.52,0,0,1,1.7,8.54v3.37H190.45a12.32,12.32,0,0,0,1.58,3.5,12.06,12.06,0,0,0,2.49,2.78,11.33,11.33,0,0,0,3.21,1.83,10.65,10.65,0,0,0,3.75.66A11.51,11.51,0,0,0,207,50a12,12,0,0,0,4.22-3.68l9.22,4.44A21.54,21.54,0,0,1,217,55.15a20.8,20.8,0,0,1-4.47,3.31,23,23,0,0,1-5.33,2.1A24,24,0,0,1,201.23,61.3Zm.25-34.53a11.21,11.21,0,0,0-3.62.58A10.74,10.74,0,0,0,194.71,29a11.46,11.46,0,0,0-2.49,2.61A12.29,12.29,0,0,0,190.57,35h21.77a11.48,11.48,0,0,0-1.56-3.46A11,11,0,0,0,208.33,29a10.84,10.84,0,0,0-3.17-1.64A11.48,11.48,0,0,0,201.48,26.77Z" transform="translate(-9.65 -5.7)"/><path d="M228.93,18.33h10.45v4.32a12.22,12.22,0,0,1,4.45-3.78,14.07,14.07,0,0,1,6.46-1.36h1.15V28.13h-3a10.07,10.07,0,0,0-3.91.7,8,8,0,0,0-2.84,1.91A7.79,7.79,0,0,0,240,33.62a11,11,0,0,0-.58,3.6V60.48H228.93Z" transform="translate(-9.65 -5.7)"/><path d="M272.19,61.3a34.2,34.2,0,0,1-9.78-1.3,33.77,33.77,0,0,1-7.76-3.31l-1.23-.78,5.23-8.07,1.6.82c.74.42,1.58.83,2.51,1.24a30.57,30.57,0,0,0,3,1.13,25.83,25.83,0,0,0,3.31.84,19,19,0,0,0,3.58.33,9.79,9.79,0,0,0,4.67-.9,2.76,2.76,0,0,0,1.63-2.47,2.62,2.62,0,0,0-.68-1.87,5.51,5.51,0,0,0-2-1.24,22,22,0,0,0-3.15-.95c-1.25-.28-2.65-.62-4.21-1a34.34,34.34,0,0,1-5.83-1.94,16.8,16.8,0,0,1-4.44-2.78,11.44,11.44,0,0,1-2.82-3.74,11.31,11.31,0,0,1-1-4.84A10.73,10.73,0,0,1,256,25.62a12.7,12.7,0,0,1,3.38-4.16,16.67,16.67,0,0,1,5.39-2.88A22.69,22.69,0,0,1,272,17.51a36.57,36.57,0,0,1,8.91,1,35.41,35.41,0,0,1,6.61,2.26l1.93.95-5.06,7.73-1.69-.65a19.42,19.42,0,0,0-1.83-.66c-.75-.25-1.6-.48-2.53-.7s-1.93-.41-3-.58a22,22,0,0,0-3.26-.25,14.72,14.72,0,0,0-2.32.19,7.36,7.36,0,0,0-2,.6,4,4,0,0,0-1.42,1,2.2,2.2,0,0,0-.53,1.48,2.29,2.29,0,0,0,.45,1.42,4.21,4.21,0,0,0,1.4,1.09,12.84,12.84,0,0,0,2.43.92c1,.29,2.16.6,3.54.93a65.44,65.44,0,0,1,6.44,1.79,20.65,20.65,0,0,1,5.18,2.53,11.55,11.55,0,0,1,3.48,3.73A10.51,10.51,0,0,1,290,47.68a12,12,0,0,1-1.24,5.43,12.41,12.41,0,0,1-3.54,4.32,17.1,17.1,0,0,1-5.59,2.84A24.85,24.85,0,0,1,272.19,61.3Z" transform="translate(-9.65 -5.7)"/><path d="M293.71,39.4a23.63,23.63,0,0,1,1.55-8.6,20.91,20.91,0,0,1,4.32-6.95,19.71,19.71,0,0,1,6.64-4.65,20.92,20.92,0,0,1,8.48-1.69,18.61,18.61,0,0,1,6.36,1,17.34,17.34,0,0,1,5.54,3.37V18.33h10.45V60.48H326.6V56.9a17.34,17.34,0,0,1-5.54,3.37,18.61,18.61,0,0,1-6.36,1,20.92,20.92,0,0,1-8.48-1.69A19.71,19.71,0,0,1,299.58,55a20.91,20.91,0,0,1-4.32-7A23.68,23.68,0,0,1,293.71,39.4Zm22.35,12.06a14,14,0,0,0,2.59-.26,11.91,11.91,0,0,0,2.74-.91,12.43,12.43,0,0,0,2.7-1.71A15.85,15.85,0,0,0,326.6,46V32.86a15.3,15.3,0,0,0-2.51-2.61,14.16,14.16,0,0,0-2.7-1.71,11.52,11.52,0,0,0-2.74-.93,13.22,13.22,0,0,0-2.59-.26,11.55,11.55,0,0,0-4.55.9,11.1,11.1,0,0,0-3.68,2.53,11.91,11.91,0,0,0-2.45,3.83,13.5,13.5,0,0,0,0,9.59A11.91,11.91,0,0,0,307.83,48a11.25,11.25,0,0,0,3.68,2.53A11.55,11.55,0,0,0,316.06,51.46Z" transform="translate(-9.65 -5.7)"/><path d="M345.61,18.33h10.46v3.46a14.34,14.34,0,0,1,4.75-3.15A16,16,0,0,1,367,17.51a17.13,17.13,0,0,1,7.25,1.5,16.69,16.69,0,0,1,5.55,4.1,18.08,18.08,0,0,1,3.56,6.11,22.3,22.3,0,0,1,1.26,7.59V60.48H374.13v-24a9,9,0,0,0-.7-3.56A9.29,9.29,0,0,0,371.52,30a8.86,8.86,0,0,0-6.4-2.69,8.33,8.33,0,0,0-3.5.74,9.39,9.39,0,0,0-2.88,2A9.58,9.58,0,0,0,356.79,33a8.83,8.83,0,0,0-.72,3.52v24H345.61Z" transform="translate(-9.65 -5.7)"/><path d="M390.23,39.4a23.62,23.62,0,0,1,1.54-8.6,21.24,21.24,0,0,1,4.32-6.95,19.75,19.75,0,0,1,6.65-4.65,20.88,20.88,0,0,1,8.48-1.69,18.71,18.71,0,0,1,6.37,1,16.94,16.94,0,0,1,5.52,3.33V5.7h10.45V60.48H423.11V56.94a16.51,16.51,0,0,1-5.52,3.35,19.21,19.21,0,0,1-6.37,1,20.88,20.88,0,0,1-8.48-1.69A19.75,19.75,0,0,1,396.09,55a21.24,21.24,0,0,1-4.32-7A23.67,23.67,0,0,1,390.23,39.4Zm22.34,12.06a14.14,14.14,0,0,0,2.6-.26,12,12,0,0,0,2.73-.91,12.43,12.43,0,0,0,2.7-1.71A15.45,15.45,0,0,0,423.11,46V32.86a14.93,14.93,0,0,0-2.51-2.61,14.16,14.16,0,0,0-2.7-1.71,11.61,11.61,0,0,0-2.73-.93,13.32,13.32,0,0,0-2.6-.26,11.46,11.46,0,0,0-4.54.9,11,11,0,0,0-3.69,2.53,11.91,11.91,0,0,0-2.45,3.83,13.5,13.5,0,0,0,0,9.59A11.91,11.91,0,0,0,404.34,48,11.19,11.19,0,0,0,408,50.56,11.46,11.46,0,0,0,412.57,51.46Z" transform="translate(-9.65 -5.7)"/><path class="cls-1" d="M448.54,61.3a7.64,7.64,0,0,1-3-.6,7.87,7.87,0,0,1-2.45-1.62,7.45,7.45,0,0,1-1.65-2.45,8,8,0,0,1-.59-3.07,7.37,7.37,0,0,1,.59-2.9,7.8,7.8,0,0,1,1.65-2.43A7.7,7.7,0,0,1,448.54,46a7.09,7.09,0,0,1,2.89.6,7.71,7.71,0,0,1,2.4,1.64,8,8,0,0,1,1.67,2.43,7.06,7.06,0,0,1,.62,2.9,7.69,7.69,0,0,1-2.29,5.52,8,8,0,0,1-2.4,1.62A7.09,7.09,0,0,1,448.54,61.3Z" transform="translate(-9.65 -5.7)"/></svg>